<svg id="Long" xmlns="http://www.w3.org/2000/svg" xmlns:xlink="http://www.w3.org/1999/xlink" viewBox="0 0 1000 300"><defs><style>.cls-1{fill:url(#linear-gradient);}.cls-2{fill:url(#linear-gradient-2);}.cls-3{fill:#1b1d2d;}</style><linearGradient id="linear-gradient" x1="132.95" y1="31.6" x2="132.95" y2="268.4" gradientUnits="userSpaceOnUse"><stop offset="0" stop-color="#f77423"/><stop offset="1" stop-color="#fbce5b"/></linearGradient><linearGradient id="linear-gradient-2" x1="124.39" y1="268.39" x2="124.39" y2="171.19" xlink:href="#linear-gradient"/></defs><title>logo_long_gradient_2_dark</title><path class="cls-1" d="M227.9,229.55v0a12.42,12.42,0,0,1-.18,2.11,13.7,13.7,0,0,1-1.43,4.36l-.42.72a11.54,11.54,0,0,1-1.81,2.35l-.64.64-.26.2v0l-.62.44,0,.06c-.68.46-1.59,1.06-2.07,1.33q-4.93,3.35-10.1,6.27c-1.61.94-3.25,1.81-4.88,2.67-1.21.64-2.45,1.25-3.68,1.85q-.75.39-1.49.72c-1.12.54-2.21,1.06-3.35,1.55l-.34.14q-2.06,1-4.18,1.79a3.71,3.71,0,0,1-.5.2c-1.25.52-2.51,1-3.76,1.47-.38.14-.76.3-1.16.44-2.91,1.08-5.86,2.05-8.82,2.93l-.42.14c-1.47.44-3,.86-4.48,1.25-2.45.64-4.94,1.24-7.45,1.77-1.59.34-3.19.66-4.78.94l-2.65.46c-1.65.28-3.31.52-5,.74s-3.39.4-5.1.56-3.37.3-5.06.42c-3.39.22-6.79.34-10.2.34a155.3,155.3,0,0,1-20-1.27c-3.94-.52-7.87-1.16-11.73-2S94,263.5,90.38,262.47h0c-2.81-.79-5.57-1.69-8.32-2.63a152.3,152.3,0,0,1-16.34-6.65A156.28,156.28,0,0,1,46,241.91l-.68-.44c-.4-.26-.8-.52-1.18-.8L43,239.86c-.28-.26-.54-.52-.8-.8s-.5-.54-.72-.8a10.74,10.74,0,0,1-1.18-1.69v0A12.53,12.53,0,0,1,38.8,233a13.33,13.33,0,0,1-.44-3.47,16.09,16.09,0,0,1,.1-1.7,13.1,13.1,0,0,1,1.17-4.07c.12-.26.24-.52.38-.76s.3-.52.46-.78.34-.52.52-.78a152.3,152.3,0,0,1,23.2-29.68c.9-.9,1.81-1.79,2.73-2.67s1.85-1.73,2.79-2.59c.72-.66,1.43-1.29,2.17-1.93h0a.11.11,0,0,1,.06-.08c3.09-2.69,6.29-5.3,9.62-7.77l.38-.3.42-.32h0A13.49,13.49,0,0,1,83.81,175a14.36,14.36,0,0,1,1.59-1,19.46,19.46,0,0,1,2.41-1.22c.4-.18.84-.34,1.25-.48a20,20,0,0,1,2.65-.72,20.81,20.81,0,0,1,4.18-.42,20.16,20.16,0,0,1,4.66.54c.5.12,1,.26,1.49.4a20.74,20.74,0,0,1,6.43,3.3q.45.33.89.69c.33.27.65.55,1,.85a22.45,22.45,0,0,1,1.8,1.87l.4.5c.92,1.2,1.85,2.37,2.81,3.55q2.87,3.5,5.94,6.81c1,1.12,2.07,2.21,3.13,3.29,2.23,2.25,4.54,4.46,6.89,6.57,2.15,1.93,4.34,3.78,6.61,5.6l.06,0,1.19,1c.46.38,1,.78,1.41,1.1l.18.14a10,10,0,0,0,5.82,1.42,10.3,10.3,0,0,0,9.53-9.06,10.12,10.12,0,0,0-2.92-8.35l-5.7-5.7c-.06,0-.1-.08-.16-.14l-13.6-13.62-13.46-13.46L42.38,80.55l.08-.06A14,14,0,0,1,38,70.43v0a13.79,13.79,0,0,1,1.61-6.47l.07-.12a21.94,21.94,0,0,1,2.74-3.51l0,0a.07.07,0,0,0,0,0h0l.3-.24v0q.24-.15.6-.42l0,0c.7-.48,1.59-1.06,2.07-1.35,2.53-1.71,5.12-3.35,7.73-4.88a156.65,156.65,0,0,1,166.8,4.72l.66.44c.8.52,1.57,1.08,2.33,1.63a14.46,14.46,0,0,1,2.71,3.27,13.43,13.43,0,0,1,1.91,7.27,14.29,14.29,0,0,1-1,4.79,12.17,12.17,0,0,1-1.62,3.05,152.67,152.67,0,0,1-16,21.95,158.1,158.1,0,0,1-24.58,22.74l-.84.64a16.28,16.28,0,0,1-3,2.15A20.36,20.36,0,0,1,170,128.81h-.1a18.35,18.35,0,0,1-12.65-5.47C149.32,115.52,128,95,128,95l-1.25-1.06a16.83,16.83,0,0,0-1.39-1.1l-.18-.14a9.74,9.74,0,0,0-4.69-1.42A10.33,10.33,0,0,0,110,99.35a10.18,10.18,0,0,0,2.79,9.3L223.46,219.51A13.9,13.9,0,0,1,227.9,229.55Z"/><path class="cls-2" d="M131.3,199.53c-2.36-2.11-4.68-4.33-6.89-6.58a150.77,150.77,0,0,1-11.89-13.65l-.39-.49a20.14,20.14,0,0,0-4.5-4A20.89,20.89,0,0,0,85.4,174a17.32,17.32,0,0,0-3,2.15l-.42.32-.39.32A155.42,155.42,0,0,0,41,221.48,14.3,14.3,0,0,0,40,223a14.1,14.1,0,0,0-1.65,6.54,13.34,13.34,0,0,0,1.93,7A13,13,0,0,0,43,239.84c.74.56,1.51,1.13,2.32,1.65l.67.42a154.4,154.4,0,0,0,55.46,23.25,156.87,156.87,0,0,0,109-17.13A247.56,247.56,0,0,1,131.3,199.53Z"/><path class="cls-3" d="M525.05,115.38l3.35,1V224H501.76V211.77q-12,15.08-33.67,15.08-20.66,0-35.43-15.8t-14.77-38.73q0-22.93,14.77-38.73t35.43-15.8q21.69,0,33.67,15.08h0A18.2,18.2,0,0,1,525.05,115.38Zm-72.46,77.89q8.06,8.16,20.45,8.16t20.55-8.16q8.16-8.16,8.16-21t-8.16-21q-8.16-8.16-20.55-8.16t-20.45,8.16q-8.05,8.16-8.06,21T452.59,193.27Zm160.1-75.5q20.86,0,35.63,15.8t14.77,38.73q0,22.93-14.77,38.73t-35.63,15.8q-21.69,0-33.46-15.08V224H552.57V77.43h0a19,19,0,0,1,26.65,17.36v38.06Q591,117.78,612.69,117.77Zm-25.41,75.5q8.05,8.16,20.45,8.16t20.56-8.16q8.16-8.16,8.16-21t-8.16-21q-8.17-8.16-20.56-8.16t-20.45,8.16q-8.06,8.16-8.06,21T587.28,193.27ZM681.89,224V77.5h0a19.78,19.78,0,0,1,26.65,18.55V224Zm64.24-114.74a16.58,16.58,0,0,1-16.32-16.32,16,16,0,0,1,4.86-11.57,15.51,15.51,0,0,1,11.47-5,15.73,15.73,0,0,1,11.67,5,16,16,0,0,1,4.86,11.57,15.68,15.68,0,0,1-4.86,11.47A15.91,15.91,0,0,1,746.13,109.21ZM732.91,224V139.12a19.78,19.78,0,0,1,26.65-18.55h0V224Zm73.54-40.7q5.37,19.42,29.13,19.42,15.29,0,23.14-10.33l21.48,12.39q-15.29,22.11-45,22.1-25.62,0-41.11-15.49t-15.49-39q0-23.34,15.28-38.94t39.25-15.59q22.72,0,37.49,15.7t14.77,38.83a62.6,62.6,0,0,1-1,10.95ZM806,162.6h52.68q-2.27-10.53-9.4-15.7a27,27,0,0,0-16.22-5.16q-10.75,0-17.77,5.48T806,162.6ZM930.6,138.43a27.84,27.84,0,0,1,12.29-14.87,37.52,37.52,0,0,1,19.11-5v29.74a31.38,31.38,0,0,0-21.79,5q-9.61,6.41-9.61,21.28V224H904V147.31a26.65,26.65,0,0,1,26.65-26.65h0ZM347.3,226.49q-21.41-1.87-35.18-12.72l-.27-.22c-13.13-10.48-10.34-31.25,4.85-38.44l2.65-1.25q6.51,22.76,31.21,24.92,11.93,1,17.87-2.79a13.32,13.32,0,0,0,6.51-10.42q.67-7.62-5.76-12.43T345.7,161.85a149.74,149.74,0,0,1-15.85-7.19,70.93,70.93,0,0,1-12.7-8.89A31.59,31.59,0,0,1,308,132.64,40.19,40.19,0,0,1,306,115q1.71-19.55,16.62-30t34.46-8.7q17.49,1.53,30,11.23l.25.19c12.44,9.75,9.87,29.34-4.46,36l-2.27,1.06q-7-19.28-26-20.94-8.85-.77-14.24,2.8a12.72,12.72,0,0,0-6,10,13.15,13.15,0,0,0,4.7,11.5q5.29,4.72,20.91,11.06,6.4,2.64,9.7,4.07t9,4.31a56.32,56.32,0,0,1,8.67,5.21,72.77,72.77,0,0,1,6.82,6.2,28.52,28.52,0,0,1,5.65,7.75,41.37,41.37,0,0,1,3.47,20.83q-1.75,20-17.28,30.42T347.3,226.49Z"/></svg>