<svg width="1440" height="300" viewBox="0 0 1440 300" fill="none" xmlns="http://www.w3.org/2000/svg">
<path d="M227.9 229.55C227.9 230.258 227.84 230.963 227.72 231.66C227.492 233.184 227.008 234.658 226.29 236.02L225.87 236.74C225.37 237.598 224.762 238.388 224.06 239.09L223.42 239.73L223.16 239.93L222.54 240.37V240.43C221.86 240.89 220.95 241.49 220.47 241.76C217.183 243.994 213.817 246.084 210.37 248.03C208.76 248.97 207.12 249.84 205.49 250.7C204.28 251.34 203.04 251.95 201.81 252.55C201.31 252.81 200.813 253.05 200.32 253.27C199.2 253.81 198.11 254.33 196.97 254.82L196.63 254.96C195.257 255.627 193.863 256.224 192.45 256.75C192.288 256.829 192.121 256.896 191.95 256.95C190.7 257.47 189.44 257.95 188.19 258.42C187.81 258.56 187.43 258.72 187.03 258.86C184.12 259.94 181.17 260.91 178.21 261.79L177.79 261.93C176.32 262.37 174.79 262.79 173.31 263.18C170.86 263.82 168.37 264.42 165.86 264.95C164.27 265.29 162.67 265.61 161.08 265.89L158.43 266.35C156.78 266.63 155.12 266.87 153.43 267.09C151.74 267.31 150.04 267.49 148.33 267.65C146.62 267.81 144.96 267.95 143.27 268.07C139.88 268.29 136.48 268.41 133.07 268.41C126.383 268.418 119.702 267.994 113.07 267.14C109.13 266.62 105.2 265.98 101.34 265.14C97.48 264.3 94 263.5 90.38 262.47C87.57 261.68 84.81 260.78 82.06 259.84C76.4894 257.941 71.0336 255.721 65.72 253.19C58.8817 249.914 52.291 246.144 46 241.91L45.32 241.47C44.92 241.21 44.52 240.95 44.14 240.67L43 239.86C42.72 239.6 42.46 239.34 42.2 239.06C41.94 238.78 41.7 238.52 41.48 238.26C41.0334 237.736 40.6382 237.17 40.3 236.57C39.618 235.465 39.112 234.261 38.8 233C38.5016 231.868 38.3536 230.701 38.36 229.53C38.3633 228.962 38.3967 228.395 38.46 227.83C38.6267 226.419 39.0218 225.045 39.63 223.76C39.75 223.5 39.87 223.24 40.01 223C40.15 222.76 40.31 222.48 40.47 222.22C40.63 221.96 40.81 221.7 40.99 221.44C47.4653 210.625 55.2582 200.655 64.19 191.76C65.09 190.86 66 189.97 66.92 189.09C67.84 188.21 68.77 187.36 69.71 186.5C70.43 185.84 71.14 185.21 71.88 184.57C71.883 184.553 71.89 184.537 71.9004 184.523C71.9108 184.509 71.9244 184.498 71.94 184.49C75.03 181.8 78.23 179.19 81.56 176.72L81.94 176.42L82.36 176.1C82.818 175.701 83.3025 175.334 83.81 175C84.3176 174.633 84.8487 174.299 85.4 174C86.1741 173.538 86.9794 173.131 87.81 172.78C88.21 172.6 88.65 172.44 89.06 172.3C89.9258 172 90.8112 171.759 91.71 171.58C93.0856 171.3 94.4861 171.159 95.89 171.16C97.4591 171.158 99.023 171.34 100.55 171.7C101.05 171.82 101.55 171.96 102.04 172.1C104.36 172.816 106.536 173.932 108.47 175.4C108.77 175.62 109.067 175.85 109.36 176.09C109.69 176.36 110.01 176.64 110.36 176.94C110.996 177.528 111.597 178.153 112.16 178.81L112.56 179.31C113.48 180.51 114.41 181.68 115.37 182.86C117.283 185.194 119.263 187.464 121.31 189.67C122.31 190.79 123.38 191.88 124.44 192.96C126.67 195.21 128.98 197.42 131.33 199.53C133.48 201.46 135.67 203.31 137.94 205.13H138L139.19 206.13C139.65 206.51 140.19 206.91 140.6 207.23L140.78 207.37C142.529 208.427 144.56 208.923 146.6 208.79C148.995 208.628 151.259 207.633 152.999 205.979C154.739 204.325 155.846 202.114 156.13 199.73C156.307 198.208 156.136 196.666 155.631 195.219C155.125 193.773 154.297 192.46 153.21 191.38L147.51 185.68C147.45 185.68 147.41 185.6 147.35 185.54L133.75 171.92L120.29 158.46L42.38 80.5504L42.46 80.4904C41.0756 79.2017 39.9667 77.646 39.2001 75.9169C38.4336 74.1879 38.0253 72.3215 38 70.4304C37.9994 68.1745 38.5522 65.9529 39.61 63.9604L39.68 63.8404C40.4719 62.5805 41.39 61.4044 42.42 60.3304L42.72 60.0904C42.88 59.9904 43.08 59.8504 43.32 59.6704C44.02 59.1904 44.91 58.6104 45.39 58.3204C47.92 56.6104 50.51 54.9704 53.12 53.4404C78.5423 38.429 107.689 30.9073 137.201 31.7424C166.712 32.5775 195.387 41.7354 219.92 58.1604L220.58 58.6004C221.38 59.1204 222.15 59.6804 222.91 60.2304C223.969 61.181 224.883 62.2829 225.62 63.5004C226.936 65.6925 227.598 68.2146 227.53 70.7704C227.475 72.4126 227.136 74.0331 226.53 75.5604C226.138 76.6489 225.592 77.6759 224.91 78.6104C220.239 86.3879 214.885 93.7336 208.91 100.56C201.545 108.989 193.305 116.612 184.33 123.3L183.49 123.94C182.575 124.768 181.568 125.49 180.49 126.09C177.303 127.928 173.678 128.868 170 128.81H169.9C165.133 128.7 160.596 126.738 157.25 123.34C149.32 115.52 128 95.0004 128 95.0004L126.75 93.9404C126.306 93.5495 125.842 93.1823 125.36 92.8404L125.18 92.7004C123.763 91.8351 122.149 91.3463 120.49 91.2804C118.073 91.1847 115.7 91.9401 113.783 93.4148C111.866 94.8895 110.527 96.99 110 99.3503C109.654 101.01 109.728 102.73 110.215 104.354C110.702 105.979 111.587 107.455 112.79 108.65L223.46 219.51C224.843 220.795 225.95 222.347 226.713 224.073C227.476 225.8 227.88 227.663 227.9 229.55Z" fill="white"/>
<path d="M525.05 115.38L528.4 116.38V224H501.76V211.77C493.76 221.824 482.537 226.85 468.09 226.85C454.317 226.85 442.507 221.584 432.66 211.05C422.813 200.517 417.89 187.607 417.89 172.32C417.89 157.034 422.813 144.124 432.66 133.59C442.507 123.057 454.317 117.79 468.09 117.79C482.55 117.79 493.773 122.817 501.76 132.87C501.758 130.044 502.413 127.256 503.675 124.727C504.937 122.198 506.771 119.998 509.031 118.301C511.291 116.604 513.915 115.456 516.696 114.949C519.476 114.442 522.337 114.59 525.05 115.38ZM452.59 193.27C457.963 198.71 464.78 201.43 473.04 201.43C481.3 201.43 488.15 198.71 493.59 193.27C499.03 187.83 501.75 180.83 501.75 172.27C501.75 163.71 499.03 156.71 493.59 151.27C488.15 145.83 481.3 143.11 473.04 143.11C464.78 143.11 457.963 145.83 452.59 151.27C447.223 156.71 444.537 163.71 444.53 172.27C444.523 180.83 447.21 187.83 452.59 193.27ZM612.69 117.77C626.597 117.77 638.473 123.037 648.32 133.57C658.167 144.104 663.09 157.014 663.09 172.3C663.09 187.587 658.167 200.497 648.32 211.03C638.473 221.564 626.597 226.83 612.69 226.83C598.23 226.83 587.077 221.804 579.23 211.75V224H552.57V77.4304C555.46 76.1594 558.62 75.6284 561.767 75.8853C564.913 76.1423 567.946 77.1791 570.591 78.9021C573.236 80.6251 575.41 82.98 576.916 85.754C578.423 88.528 579.215 91.6337 579.22 94.7904V132.85C587.073 122.804 598.23 117.777 612.69 117.77ZM587.28 193.27C592.647 198.71 599.463 201.43 607.73 201.43C615.997 201.43 622.85 198.71 628.29 193.27C633.73 187.83 636.45 180.83 636.45 172.27C636.45 163.71 633.73 156.71 628.29 151.27C622.843 145.83 615.99 143.11 607.73 143.11C599.47 143.11 592.653 145.83 587.28 151.27C581.907 156.71 579.22 163.71 579.22 172.27C579.22 180.83 581.907 187.83 587.28 193.27ZM681.89 224V77.5004C684.881 76.3927 688.095 76.0246 691.259 76.4275C694.423 76.8305 697.442 77.9926 700.06 79.8146C702.678 81.6367 704.816 84.0648 706.293 86.8918C707.769 89.7188 708.54 92.861 708.54 96.0504V224H681.89ZM746.13 109.26C741.823 109.193 737.71 107.452 734.664 104.406C731.618 101.36 729.877 97.2478 729.81 92.9404C729.799 90.7839 730.223 88.6473 731.058 86.659C731.894 84.6708 733.122 82.8719 734.67 81.3704C736.13 79.7861 737.904 78.5233 739.878 77.6624C741.853 76.8016 743.986 76.3616 746.14 76.3704C748.326 76.3472 750.493 76.7798 752.502 77.6407C754.511 78.5016 756.319 79.7719 757.81 81.3704C759.358 82.8719 760.587 84.6708 761.422 86.659C762.257 88.6473 762.681 90.7839 762.67 92.9404C762.687 95.0829 762.264 97.206 761.428 99.1787C760.592 101.151 759.361 102.932 757.81 104.41C756.294 105.965 754.475 107.193 752.467 108.019C750.458 108.844 748.301 109.25 746.13 109.21V109.26ZM732.91 224V139.12C732.91 135.931 733.681 132.789 735.157 129.962C736.634 127.135 738.772 124.707 741.39 122.885C744.008 121.063 747.027 119.9 750.191 119.498C753.355 119.095 756.569 119.463 759.56 120.57V224H732.91ZM806.45 183.3C810.03 196.247 819.74 202.72 835.58 202.72C845.773 202.72 853.487 199.277 858.72 192.39L880.2 204.78C870.007 219.52 855.007 226.887 835.2 226.88C818.12 226.88 804.417 221.717 794.09 211.39C783.763 201.064 778.6 188.064 778.6 172.39C778.6 156.83 783.693 143.85 793.88 133.45C804.067 123.05 817.15 117.854 833.13 117.86C848.277 117.86 860.773 123.094 870.62 133.56C880.467 144.027 885.39 156.97 885.39 172.39C885.379 176.063 885.044 179.727 884.39 183.34L806.45 183.3ZM806 162.6H858.68C857.167 155.58 854.033 150.347 849.28 146.9C844.571 143.477 838.882 141.667 833.06 141.74C825.893 141.74 819.97 143.567 815.29 147.22C810.61 150.874 807.513 156 806 162.6ZM930.6 138.43C932.794 132.167 937.152 126.894 942.89 123.56C948.699 120.217 955.298 118.49 962 118.56V148.3C954.369 147.235 946.613 149.015 940.21 153.3C933.803 157.574 930.6 164.667 930.6 174.58V224H904V147.31C904 140.242 906.808 133.464 911.806 128.466C916.804 123.468 923.582 120.66 930.65 120.66L930.6 138.43ZM347.3 226.49C333.027 225.244 321.3 221.004 312.12 213.77L311.85 213.55C298.72 203.07 301.51 182.3 316.7 175.11L319.35 173.86C323.69 189.034 334.093 197.34 350.56 198.78C358.513 199.447 364.47 198.517 368.43 195.99C370.272 194.904 371.825 193.39 372.958 191.576C374.091 189.762 374.771 187.702 374.94 185.57C375.387 180.49 373.467 176.347 369.18 173.14C364.893 169.934 357.067 166.17 345.7 161.85C340.282 159.763 334.99 157.362 329.85 154.66C325.305 152.17 321.046 149.189 317.15 145.77C313.024 142.252 309.872 137.73 308 132.64C306.027 126.983 305.343 120.956 306 115C307.14 101.967 312.68 91.9671 322.62 85.0004C332.56 78.0337 344.047 75.1337 357.08 76.3004C368.74 77.3204 378.74 81.0637 387.08 87.5304L387.33 87.7204C399.77 97.4704 397.2 117.06 382.87 123.72L380.6 124.78C375.933 111.927 367.267 104.947 354.6 103.84C348.7 103.327 343.953 104.26 340.36 106.64C338.635 107.708 337.19 109.173 336.147 110.912C335.103 112.652 334.49 114.616 334.36 116.64C334.135 118.796 334.446 120.974 335.266 122.98C336.086 124.987 337.39 126.759 339.06 128.14C342.587 131.287 349.557 134.974 359.97 139.2C364.237 140.96 367.47 142.317 369.67 143.27C371.87 144.224 374.87 145.66 378.67 147.58C381.71 149.054 384.612 150.797 387.34 152.79C389.742 154.711 392.02 156.782 394.16 158.99C396.467 161.236 398.378 163.857 399.81 166.74C402.749 173.267 403.945 180.444 403.28 187.57C402.113 200.904 396.353 211.044 386 217.99C375.647 224.937 362.747 227.77 347.3 226.49Z" fill="white"/>
<path d="M1128.25 148.696C1141.48 156.318 1148.09 167.822 1148.09 183.21C1148.09 196.009 1143.56 206.507 1134.5 214.704C1125.44 222.901 1114.3 227 1101.07 227H1037V76H1096.54C1109.48 76 1120.34 80.0267 1129.11 88.08C1138.03 95.9895 1142.48 106.128 1142.48 118.496C1142.48 131.007 1137.74 141.074 1128.25 148.696ZM1097.57 101.292H1063.26V139.582H1097.57C1102.88 139.582 1107.27 137.759 1110.75 134.112C1114.4 130.465 1116.22 125.907 1116.22 120.437C1116.22 114.967 1114.48 110.409 1111 106.762C1107.52 103.116 1103.04 101.292 1097.57 101.292ZM1099.91 201.234C1105.53 201.234 1110.19 199.389 1113.88 195.698C1117.57 191.847 1119.41 187.033 1119.41 181.256C1119.41 175.64 1117.57 170.986 1113.88 167.295C1110.19 163.444 1105.53 161.518 1099.91 161.518H1063.77V201.234H1099.91Z" fill="white"/>
<path d="M1256.78 210.776C1246.01 221.4 1232.87 226.712 1217.36 226.712C1201.84 226.712 1188.7 221.4 1177.94 210.776C1167.31 200.012 1162 186.872 1162 171.356C1162 155.839 1167.31 142.769 1177.94 132.145C1188.7 121.382 1201.84 116 1217.36 116C1232.87 116 1246.01 121.382 1256.78 132.145C1267.54 142.769 1272.92 155.839 1272.92 171.356C1272.92 186.872 1267.54 200.012 1256.78 210.776ZM1197.02 192.114C1202.47 197.566 1209.25 200.292 1217.36 200.292C1225.46 200.292 1232.24 197.566 1237.69 192.114C1243.15 186.663 1245.87 179.743 1245.87 171.356C1245.87 162.969 1243.15 156.049 1237.69 150.597C1232.24 145.146 1225.46 142.42 1217.36 142.42C1209.25 142.42 1202.47 145.146 1197.02 150.597C1191.7 156.049 1189.05 162.969 1189.05 171.356C1189.05 179.743 1191.7 186.663 1197.02 192.114Z" fill="white"/>
<path fill-rule="evenodd" clip-rule="evenodd" d="M1291.42 77.4302C1294.31 76.1593 1297.47 75.6284 1300.62 75.8853C1303.76 76.1422 1306.8 77.179 1309.44 78.9019C1312.09 80.6249 1314.26 82.9804 1315.77 85.7544C1317.28 88.5283 1318.07 91.634 1318.07 94.7906V132.85C1325.93 122.804 1337.08 117.777 1351.54 117.77C1365.45 117.77 1377.33 123.038 1387.17 133.571C1397.02 144.104 1401.94 157.014 1401.94 172.3C1401.94 187.587 1397.02 200.497 1387.17 211.031C1377.33 221.564 1365.45 226.831 1351.54 226.831C1337.08 226.831 1325.93 221.804 1318.08 211.751V224.001H1291.42V77.4302ZM1346.58 143.111C1338.32 143.111 1331.51 145.83 1326.13 151.27C1320.76 156.71 1318.07 163.71 1318.07 172.27C1318.07 180.83 1320.76 187.83 1326.13 193.27C1331.5 198.71 1338.32 201.43 1346.58 201.43C1354.85 201.43 1361.7 198.71 1367.14 193.27C1372.58 187.83 1375.3 180.83 1375.3 172.27C1375.3 163.71 1372.58 156.71 1367.14 151.27C1361.7 145.83 1354.84 143.111 1346.58 143.111Z" fill="white"/>
</svg>
