<svg viewBox="0 0 386 480" fill="none" xmlns="http://www.w3.org/2000/svg">
  <path
    d="M385.976 401.2C385.976 402.7 385.876 404.1 385.576 405.5C385.176 408.6 384.076 411.6 382.676 414.3L381.876 415.8C380.876 417.5 379.675 419.1 378.175 420.6L376.876 421.9L376.376 422.3C376.076 422.5 375.575 422.8 375.075 423.2V423.3C373.675 424.2 371.875 425.4 370.875 426C364.175 430.5 357.375 434.8 350.374 438.7C347.074 440.6 343.774 442.4 340.474 444.1C337.974 445.4 335.474 446.6 332.974 447.9C331.974 448.4 330.974 448.9 329.974 449.4C327.673 450.5 325.473 451.5 323.173 452.6C322.973 452.7 322.773 452.8 322.473 452.9C319.673 454.2 316.873 455.4 313.973 456.5C313.673 456.7 313.373 456.8 312.973 456.9C310.473 457.9 307.872 459 305.372 459.9C304.572 460.2 303.872 460.5 303.072 460.8C297.172 463 291.171 465 285.171 466.7C284.971 466.8 284.671 466.9 284.371 467C281.371 467.9 278.271 468.7 275.271 469.5C270.271 470.8 265.27 472 260.17 473.1C256.97 473.8 253.67 474.4 250.47 475C248.67 475.3 246.869 475.6 245.069 475.9C241.669 476.5 238.369 476.9 234.969 477.4C231.569 477.8 228.069 478.2 224.668 478.5C221.268 478.8 217.868 479.1 214.368 479.3C207.468 479.7 200.567 480 193.667 480C180.066 480 166.466 479.2 153.165 477.4C145.165 476.4 137.165 475.1 129.364 473.4C121.764 471.9 114.364 470 106.963 467.9C101.263 466.3 95.6624 464.5 90.0622 462.6C78.7617 458.7 67.6615 454.3 56.861 449.1C43.0603 442.5 29.6597 434.9 16.8591 426.2L15.4592 425.3C14.6591 424.8 13.8587 424.3 13.0587 423.7C12.2586 423.1 11.4588 422.6 10.7588 422C10.1587 421.5 9.65863 421 9.1586 420.4C8.65858 419.9 8.15856 419.3 7.65854 418.8C6.75849 417.7 5.95856 416.6 5.25852 415.4C3.85846 413.2 2.85841 410.8 2.25839 408.3C1.65836 406 1.35844 403.7 1.35844 401.3C1.35844 400.2 1.45816 399 1.55816 397.9C1.85817 395 2.75861 392.3 3.95866 389.6C4.15867 389.1 4.45849 388.5 4.7585 388.1C5.05851 387.6 5.35843 387.1 5.65844 386.5C5.95846 386 6.35857 385.5 6.75859 384.9C19.8592 363 35.66 342.9 53.8608 324.7C55.6609 322.9 57.561 321.1 59.3611 319.3C61.2612 317.5 63.161 315.8 65.0611 314.1C66.5611 312.8 67.9616 311.5 69.4616 310.2C69.4616 310.2 69.4613 310.1 69.5613 310C75.8615 304.5 82.3618 299.3 89.0621 294.3L89.8625 293.7L90.6623 293.1C91.5624 292.3 92.4623 291.5 93.5623 290.8C94.5624 290 95.6626 289.4 96.7627 288.7C98.2628 287.8 99.9627 287 101.663 286.2C102.463 285.8 103.363 285.5 104.163 285.2C105.863 284.6 107.763 284.1 109.563 283.7C112.263 283.1 115.163 282.9 118.063 282.9C121.264 282.9 124.464 283.3 127.564 284C128.564 284.2 129.664 284.5 130.564 284.8C135.264 286.2 139.664 288.5 143.565 291.5C144.165 291.9 144.765 292.4 145.365 292.9C146.065 293.5 146.665 294 147.365 294.6C148.665 295.8 149.865 297 150.965 298.4L151.765 299.4C153.665 301.8 155.566 304.2 157.466 306.6C161.366 311.3 165.366 315.9 169.466 320.4C171.566 322.7 173.666 324.9 175.766 327.1C180.266 331.7 184.967 336.1 189.767 340.4C194.167 344.3 198.567 348.1 203.167 351.7L203.268 351.6L205.668 353.7C206.568 354.5 207.568 355.3 208.568 355.9L208.968 356.2C212.368 358.3 216.468 359.3 220.768 359.1C230.669 358.6 239.069 350.6 240.069 340.7C240.769 334.3 238.569 328.2 234.169 323.8L222.568 312.3C222.468 312.3 222.368 312.1 222.268 312L194.667 284.4L167.366 257.1L9.25871 99.3L9.45891 99.2C3.75865 94 0.458403 86.6001 0.358398 78.8C0.358398 74.2001 1.45825 69.7 3.65835 65.7L3.75846 65.5C5.05851 63.4 7.55873 60.1999 9.35881 58.3999C9.35881 58.3999 9.35881 58.4 9.35881 58.3L9.95893 57.8C10.2589 57.6 10.6587 57.3 11.1587 57L11.0586 56.8999C12.4587 55.8999 14.2589 54.7999 15.259 54.2C20.3592 50.7 25.6596 47.4 30.9599 44.3C79.7621 15.4 135.264 0.199951 192.667 0.199951C214.368 0.199951 236.069 2.39995 256.97 6.69995C297.472 15 335.273 30.8 369.575 53.8L370.875 54.7C372.475 55.7 374.075 56.9 375.575 58C377.875 60.1 379.675 62.3001 381.075 64.6001C383.776 69.0001 385.076 74 384.976 79.3C384.876 82.6001 384.076 85.9 382.976 89C381.876 91.8 381.076 93.1 379.675 95.2C370.175 110.9 359.375 125.8 347.174 139.7C332.373 156.6 315.673 172 297.272 185.8L295.572 187.1C293.771 188.7 291.772 190.2 289.472 191.5C283.271 195.2 275.871 197.2 268.17 197.2C268.07 197.2 268.071 197.2 267.971 197.2C258.27 197.2 249.17 192.9 242.269 186.1C226.169 170.2 182.867 128.6 182.867 128.6L180.367 126.5C179.467 125.7 178.466 124.9 177.566 124.3L177.166 124C174.366 122.3 171.066 121.3 167.666 121.1C157.565 120.6 148.265 127.7 146.265 137.5C144.865 144.5 147.065 151.4 151.965 156.4L376.675 381.1C382.676 386.1 385.876 393.5 385.976 401.2Z"
    fill="white" />
</svg>